<svg xmlns="http://www.w3.org/2000/svg" viewBox="0 0 64 64"><path d="M3 62h30a1 1 0 001-1V42c0-4.962-4.037-9-9-9h-1.026C26.412 31.175 28 28.273 28 25v-4a9.846 9.846 0 00-.659-3.519A6.985 6.985 0 0030 12a1 1 0 00-1-1H15c-3.859 0-7 3.14-7 7v7c0 3.273 1.588 6.175 4.026 8H11c-4.963 0-9 4.038-9 9v19a1 1 0 001 1zm13-26.414V35h4v.586l-2 2-2-2zm4.112 5.172l1.789 10.734L18 53.834l-3.901-2.341 1.789-10.734L18 40.054l2.112.704zM15 13h12.899a5.009 5.009 0 01-2.334 3.282c-.108.065-.221.117-.333.173a4.87 4.87 0 01-.366.171 4.942 4.942 0 01-.788.243c-.097.022-.194.045-.292.061-.256.041-.518.07-.786.07h-8.349a.997.997 0 00-.942.667 5.046 5.046 0 01-.296.666c-.035.067-.077.129-.115.194a4.99 4.99 0 01-.269.415c-.051.07-.105.136-.159.203a5.038 5.038 0 01-.86.832c-.061.046-.119.095-.182.139a4.868 4.868 0 01-.529.317c-.026.014-.05.031-.077.044a5.1 5.1 0 01-.654.268c-.065.022-.133.036-.2.055a5.051 5.051 0 01-.368.088V18c0-2.757 2.243-5 5-5zm-5 12v-2.072h.001c.017-.002.032-.008.049-.01a7.1 7.1 0 00.864-.189c.101-.029.197-.068.296-.102.194-.065.387-.133.574-.214.111-.048.216-.104.324-.158.168-.084.334-.171.495-.268a7.316 7.316 0 001.045-.771c.141-.125.273-.258.404-.395.083-.087.168-.172.246-.263.135-.156.257-.323.378-.491.06-.084.125-.163.182-.249.17-.261.326-.532.462-.817H23c.228 0 .456-.012.682-.035.141-.014.278-.038.417-.06.081-.013.162-.021.242-.037a6.86 6.86 0 00.518-.126c.041-.011.082-.02.123-.032.187-.055.37-.121.551-.191.02-.008.041-.013.06-.021.27.807.407 1.645.407 2.501v4c0 4.411-3.589 8-8 8s-8-3.589-8-8zM4 42c0-3.86 3.141-7 7-7h3v1c0 .265.105.52.293.707l1.855 1.855-1.465.488a.999.999 0 00-.67.784l-2 12a1 1 0 00.472 1.022l5 3a.994.994 0 001.03.001l5-3a1 1 0 00.472-1.022l-2-12a.999.999 0 00-.67-.784l-1.465-.488 1.855-1.855A1 1 0 0022 36v-1h3c3.859 0 7 3.14 7 7v18H4V42zM56.984 41.291A7.958 7.958 0 0059 36c0-4.411-3.589-8-8-8s-8 3.589-8 8c0 2.029.766 3.879 2.016 5.291C42.12 42.149 40 44.83 40 48v13a1 1 0 001 1h20a1 1 0 001-1V48c0-3.17-2.12-5.851-5.016-6.709zM51 30c3.309 0 6 2.691 6 6a5.997 5.997 0 01-2.935 5.149 6.047 6.047 0 01-6.129 0A5.996 5.996 0 0145 36c0-3.309 2.691-6 6-6zm9 30H42V48c0-2.757 2.243-5 5-5h.136c1.147.636 2.463 1 3.864 1s2.718-.364 3.864-1H55c2.757 0 5 2.243 5 5v12z"/><path d="M57 2H42c-2.757 0-5 2.243-5 5v8.586l-6.707 6.707A1 1 0 0 0 31 24h26c2.757 0 5-2.243 5-5V7c0-2.757-2.243-5-5-5zm3 17c0 1.654-1.346 3-3 3H33.414l5.293-5.293A.997.997 0 0 0 39 16V7c0-1.654 1.346-3 3-3h15c1.654 0 3 1.346 3 3v12z"/><path d="M41 6h17v2H41zM41 10h17v2H41zM41 14h17v2H41zM41 18h17v2H41zM50 46h2v2h-2zM50 50h2v2h-2zM16 26h-2c0 2.206 1.794 4 4 4v-2c-1.103 0-2-.897-2-2z"/></svg>