<svg xmlns="http://www.w3.org/2000/svg" data-name="Layer 1" viewBox="0 0 512 512"><path d="M247.12,311.2H227.2a7.5,7.5,0,0,0-6,12.84l44.72,43.45a7.5,7.5,0,0,0,10.46-10.76L245,326.2h2.16a32.46,32.46,0,0,0,31.61-25.4h7.06a7.5,7.5,0,0,0,0-15h-7.25a32.34,32.34,0,0,0-4.14-9.59h11.39a7.5,7.5,0,0,0,0-15h-59a7.5,7.5,0,0,0,0,15h20.34a17.4,17.4,0,0,1,15.5,9.59H226.78a7.5,7.5,0,0,0,0,15H263A17.41,17.41,0,0,1,247.12,311.2Zm8.88,90a90,90,0,1,0-63.64-26.36A89.41,89.41,0,0,0,256,401.21Zm-53-143a75,75,0,1,1-22,53A74.48,74.48,0,0,1,203,258.18Zm308.24,243-10.86-21.71A22.37,22.37,0,0,0,480.23,467h-1.09l-8.79-17.56A22.34,22.34,0,0,0,455,437.5V426.12a22.54,22.54,0,0,0-16-21.54V217.84a22.54,22.54,0,0,0,16-21.54V186h4.5A22.52,22.52,0,0,0,482,163.56l.33-22v-.18c0-.15,0-.29,0-.44l0-.32c0-.13,0-.26,0-.39a3.4,3.4,0,0,0-.07-.34,2.22,2.22,0,0,0-.09-.37l-.09-.34c0-.12-.08-.24-.13-.36l-.12-.31c-.06-.13-.11-.25-.17-.37l-.15-.28-.21-.37-.16-.25-.27-.37c-.06-.07-.11-.15-.18-.22a3.17,3.17,0,0,0-.3-.34l-.11-.13-.1-.08c-.1-.1-.2-.2-.31-.29l-.26-.22-.3-.23-.33-.22-.13-.09L262.93,2.86l-.14-.09a13.56,13.56,0,0,0-13.58,0l-.15.1L33.91,135.05l-.1.07-.36.25a2.48,2.48,0,0,0-.26.19l-.29.24-.27.25c-.08.07-.15.15-.23.23s-.19.2-.27.3l-.19.24-.25.33a2.9,2.9,0,0,0-.19.29,3.21,3.21,0,0,0-.19.31c-.07.12-.13.25-.2.38l-.12.25c-.07.14-.12.29-.18.44a2.09,2.09,0,0,0-.08.23c-.05.14-.09.29-.13.44s-.05.17-.07.26-.05.26-.08.4,0,.22-.05.34,0,.22,0,.32,0,.29,0,.43,0,.06,0,.09L30,163.39v.11A22.52,22.52,0,0,0,52.5,186H57v10.3a22.54,22.54,0,0,0,16,21.54V404.58a22.54,22.54,0,0,0-16,21.54V437.5a22.34,22.34,0,0,0-15.35,11.94L32.87,467h-1.1a22.37,22.37,0,0,0-20.12,12.44L.79,501.15A7.5,7.5,0,0,0,7.5,512h497a7.5,7.5,0,0,0,6.71-10.85Zm-71.21-75V437H379V426.12a7.5,7.5,0,0,1,7.5-7.5h46A7.5,7.5,0,0,1,440,426.12ZM131,404.3V218.12a22.54,22.54,0,0,0,17-21.82V186H364v10.3a22.54,22.54,0,0,0,17,21.82V404.3a22.54,22.54,0,0,0-17,21.82V437H148V426.12A22.54,22.54,0,0,0,131,404.3Zm265-.68V218.8h28V403.62ZM440,196.3a7.51,7.51,0,0,1-7.5,7.5h-46a7.51,7.51,0,0,1-7.5-7.5V186h61ZM256,16.2,448.23,133.94H64.37ZM64.5,170.89a7.36,7.36,0,0,0-1.25.11H52.5a7.51,7.51,0,0,1-7.5-7.45l.22-14.61h422L467,163.39v.11a7.5,7.5,0,0,1-7.5,7.5H448.75a7.16,7.16,0,0,0-2.5,0h-73.5a7.16,7.16,0,0,0-2.5,0H141.75a7.16,7.16,0,0,0-2.5,0H65.75A7.36,7.36,0,0,0,64.5,170.89ZM72,196.3V186h61v10.3a7.51,7.51,0,0,1-7.5,7.5h-46A7.51,7.51,0,0,1,72,196.3Zm44,22.5V403.62H88V218.8ZM72,426.12a7.5,7.5,0,0,1,7.5-7.5h46a7.5,7.5,0,0,1,7.5,7.5V437H72Zm-16.94,30A7.46,7.46,0,0,1,61.77,452H450.23a7.46,7.46,0,0,1,6.71,4.15L462.36,467H49.64ZM19.64,497l5.42-10.85A7.46,7.46,0,0,1,31.77,482H480.23a7.46,7.46,0,0,1,6.71,4.15L492.36,497ZM256,52a30,30,0,1,0,30,30A30,30,0,0,0,256,52Zm0,45a15,15,0,1,1,15-15A15,15,0,0,1,256,97Z"/></svg>