<svg xmlns="http://www.w3.org/2000/svg" data-name="Layer 1" viewBox="0 0 24 24"><path d="M20.022 23.75h-1.154a.368.368 0 0 1-.047 0h-4.3a.249.249 0 0 1-.047 0H12.44a.29.29 0 0 1-.093 0h-.89a.242.242 0 0 1-.047 0H.676a.25.25 0 0 1-.25-.25V8.9a.242.242 0 0 1 .02-.09.252.252 0 0 1 .06-.087l2.537-2.35a.25.25 0 0 1 .34 0l2.537 2.35a.252.252 0 0 1 .059.084.234.234 0 0 1 .021.1V12.3h2.037V8.633a.249.249 0 0 1 .138-.223l.858-.43V4.631a.249.249 0 0 1 .138-.223l.947-.477V1.537a.253.253 0 0 1 .073-.177L11.228.323a.252.252 0 0 1 .354 0l1.036 1.037a.249.249 0 0 1 .073.177v2.394l.948.477a.25.25 0 0 1 .137.223V7.98l.5.249v-.845a.25.25 0 0 1 .25-.25h.866a1.9 1.9 0 0 1 3.768 0h.865a.249.249 0 0 1 .25.25v1.41a.228.228 0 0 1 0 .045.212.212 0 0 1 0 .044v1.505l2.377 2.377.01.009.841.842a.25.25 0 1 1-.353.353l-.419-.419v9.95a.25.25 0 0 1-.25.25h-2.459Zm-15.9-.5h7.038v-8.93H4.117Zm-3.191 0h2.686v-1.587H.926ZM14.773 9.089V23.25h.679v-2.6a.249.249 0 0 1 .25-.25h3.142a.25.25 0 0 1 .25.25v2.6h.678V9.089ZM15.952 20.9v2.35h1.071V20.9Zm1.571 0v2.352h1.071V20.9Zm2.749 1.536v.816h1.956v-.815Zm-6.576.813h.577V8.886a.278.278 0 0 1 0-.094l-.858-.43a.25.25 0 0 1-.139-.223V4.785l-.947-.477a.252.252 0 0 1-.138-.224V1.64l-.786-.786-.787.786v2.444a.25.25 0 0 1-.138.224l-.947.477v3.35a.251.251 0 0 1-.138.223l-.858.43V12.3h.577V9.233a.25.25 0 0 1 .5 0V12.3h.55V8.74a.25.25 0 0 1 .5 0v3.56h.491V8.226a.25.25 0 1 1 .5 0V12.5a.3.3 0 0 1 .005.052v10.7h.484v-6.168a.25.25 0 0 1 .5 0v6.162h.556v-6.159a.25.25 0 0 1 .5 0Zm6.576-1.313h1.956v-.816h-1.956ZM.926 21.163h2.691v-1.584H.926Zm19.346-.546h1.956V19.8h-1.956Zm0-1.317h1.956v-.817h-1.956ZM.926 19.079h2.691v-1.585H.926Zm19.346-1.1h1.956v-.816h-1.956ZM.926 16.994h2.691V15.41H.926Zm19.346-.327h1.956v-.817h-1.956Zm0-1.317h1.956v-.817h-1.956ZM.926 14.91h2.691v-1.584H.926Zm19.346-.877h1.956v-.983l-1.956-1.95ZM4.117 13.82h7.043V12.8H4.117Zm-3.191-.994h2.691v-.277a.25.25 0 0 1 .25-.25H5.5v-1.058H.926Zm0-2.085H5.5V9.157H.926Zm.388-2.084h3.8L3.213 6.9Zm13.459-.068h5v-.955h-5ZM15.9 7.134h2.756a1.4 1.4 0 0 0-2.756 0ZM9.883 21.179a.25.25 0 0 1-.25-.25v-.708a.25.25 0 0 1 .5 0v.708a.25.25 0 0 1-.25.25Zm-1.489 0a.25.25 0 0 1-.25-.25v-.708a.25.25 0 0 1 .5 0v.708a.25.25 0 0 1-.25.25Zm-1.49 0a.25.25 0 0 1-.25-.25v-.708a.25.25 0 0 1 .5 0v.708a.25.25 0 0 1-.254.25Zm-1.489 0a.25.25 0 0 1-.25-.25v-.708a.25.25 0 0 1 .5 0v.708a.25.25 0 0 1-.25.25Zm13.43-1.395a.25.25 0 0 1-.25-.25v-.973a.25.25 0 0 1 .5 0v.973a.25.25 0 0 1-.25.25Zm-1.048 0a.25.25 0 0 1-.25-.25v-.973a.25.25 0 0 1 .5 0v.973a.25.25 0 0 1-.247.25Zm-1.048 0a.249.249 0 0 1-.25-.25v-.973a.25.25 0 0 1 .5 0v.973a.25.25 0 0 1-.25.25Zm-1.049 0a.25.25 0 0 1-.25-.25v-.973a.25.25 0 0 1 .5 0v.973a.25.25 0 0 1-.25.25Zm-5.817-.164a.25.25 0 0 1-.25-.25v-.708a.25.25 0 0 1 .5 0v.708a.25.25 0 0 1-.25.25Zm-1.489 0a.25.25 0 0 1-.25-.25v-.708a.25.25 0 0 1 .5 0v.708a.25.25 0 0 1-.25.25Zm-1.49 0a.25.25 0 0 1-.25-.25v-.708a.25.25 0 0 1 .5 0v.708a.25.25 0 0 1-.254.25Zm-1.489 0a.25.25 0 0 1-.25-.25v-.708a.25.25 0 0 1 .5 0v.708a.25.25 0 0 1-.25.25Zm4.468-1.559a.25.25 0 0 1-.25-.25V17.1a.25.25 0 0 1 .5 0v.708a.25.25 0 0 1-.25.253Zm-1.489 0a.25.25 0 0 1-.25-.25V17.1a.25.25 0 0 1 .5 0v.708a.25.25 0 0 1-.25.253Zm-1.49 0a.25.25 0 0 1-.25-.25V17.1a.25.25 0 0 1 .5 0v.708a.25.25 0 0 1-.254.253Zm-1.489 0a.25.25 0 0 1-.25-.25V17.1a.25.25 0 0 1 .5 0v.708a.25.25 0 0 1-.25.253Zm13.43-.415a.25.25 0 0 1-.25-.25v-.974a.25.25 0 1 1 .5 0v.978a.25.25 0 0 1-.25.246Zm-1.048 0a.25.25 0 0 1-.25-.25v-.974a.25.25 0 0 1 .5 0v.978a.25.25 0 0 1-.247.246Zm-1.048 0a.249.249 0 0 1-.25-.25v-.974a.25.25 0 0 1 .5 0v.978a.25.25 0 0 1-.25.246Zm-1.049 0a.25.25 0 0 1-.25-.25v-.974a.25.25 0 0 1 .5 0v.978a.25.25 0 0 1-.25.246ZM9.883 16.5a.249.249 0 0 1-.25-.25v-.708a.25.25 0 0 1 .5 0v.708a.249.249 0 0 1-.25.25Zm-1.489 0a.249.249 0 0 1-.25-.25v-.708a.25.25 0 0 1 .5 0v.708a.249.249 0 0 1-.25.25Zm-1.49 0a.249.249 0 0 1-.25-.25v-.708a.25.25 0 0 1 .5 0v.708a.249.249 0 0 1-.254.25Zm-1.489 0a.249.249 0 0 1-.25-.25v-.708a.25.25 0 0 1 .5 0v.708a.249.249 0 0 1-.25.25Zm8.031-.61a.25.25 0 0 1-.25-.25V9.233a.25.25 0 0 1 .5 0v6.408a.25.25 0 0 1-.25.25Zm-1.05 0a.25.25 0 0 1-.25-.25v-6.9a.25.25 0 0 1 .5 0v6.9a.25.25 0 0 1-.246.251Zm6.449-.385a.249.249 0 0 1-.25-.25v-.973a.25.25 0 0 1 .5 0v.973a.249.249 0 0 1-.25.251Zm-1.048 0a.249.249 0 0 1-.25-.25v-.973a.25.25 0 1 1 .5 0v.973a.249.249 0 0 1-.247.251Zm-1.048 0a.249.249 0 0 1-.25-.25v-.973a.25.25 0 1 1 .5 0v.973a.249.249 0 0 1-.25.251Zm-1.049 0a.249.249 0 0 1-.25-.25v-.973a.25.25 0 1 1 .5 0v.973a.249.249 0 0 1-.25.251Zm3.145-2.139a.25.25 0 0 1-.25-.25v-.973a.25.25 0 1 1 .5 0v.973a.25.25 0 0 1-.25.251Zm-1.048 0a.25.25 0 0 1-.25-.25v-.973a.25.25 0 0 1 .5 0v.973a.25.25 0 0 1-.247.251Zm-1.048 0a.249.249 0 0 1-.25-.25v-.973a.25.25 0 0 1 .5 0v.973a.25.25 0 0 1-.25.251Zm-1.049 0a.25.25 0 0 1-.25-.25v-.973a.25.25 0 0 1 .5 0v.973a.25.25 0 0 1-.25.251Zm3.145-2.139a.25.25 0 0 1-.25-.25v-.973a.25.25 0 0 1 .5 0v.973a.25.25 0 0 1-.25.251Zm-1.048 0a.25.25 0 0 1-.25-.25v-.973a.25.25 0 1 1 .5 0v.973a.25.25 0 0 1-.247.251Zm-1.048 0a.249.249 0 0 1-.25-.25v-.973a.25.25 0 1 1 .5 0v.973a.25.25 0 0 1-.25.251Zm-1.049 0a.25.25 0 0 1-.25-.25v-.973a.25.25 0 1 1 .5 0v.973a.25.25 0 0 1-.25.251ZM12.4 7.64a.25.25 0 0 1-.25-.25V5.236a.25.25 0 0 1 .5 0V7.39a.25.25 0 0 1-.25.25Zm-1.982 0a.249.249 0 0 1-.25-.25V5.236a.25.25 0 1 1 .5 0V7.39a.25.25 0 0 1-.254.25Zm.991-.246a.25.25 0 0 1-.25-.25V4.99a.25.25 0 0 1 .5 0v2.154a.25.25 0 0 1-.254.25Zm0-3.236a.25.25 0 0 1-.25-.25V1.754a.25.25 0 1 1 .5 0v2.154a.25.25 0 0 1-.254.25Z"/></svg>