<svg xmlns="http://www.w3.org/2000/svg" viewBox="0 0 66 66"><path d="M25.5 12.5h-5.6c-.4 0-.8.3-.8.8v5.6c0 .4.3.8.8.8h5.6c.4 0 .8-.3.8-.8v-5.6c0-.4-.4-.8-.8-.8zm-.7 5.6h-4.1V14h4.1v4.1zM35.8 12.5h-5.6c-.4 0-.8.3-.8.8v5.6c0 .4.3.8.8.8h5.6c.4 0 .8-.3.8-.8v-5.6c0-.4-.4-.8-.8-.8zm-.7 5.6H31V14h4.1v4.1zM46.1 12.5h-5.6c-.4 0-.8.3-.8.8v5.6c0 .4.3.8.8.8h5.6c.4 0 .8-.3.8-.8v-5.6c-.1-.4-.4-.8-.8-.8zm-.8 5.6h-4.1V14h4.1v4.1zM25.5 23.8h-5.6c-.4 0-.8.3-.8.8v5.6c0 .4.3.8.8.8h5.6c.4 0 .8-.3.8-.8v-5.6c0-.5-.4-.8-.8-.8zm-.7 5.6h-4.1v-4.1h4.1v4.1zM35.8 23.8h-5.6c-.4 0-.8.3-.8.8v5.6c0 .4.3.8.8.8h5.6c.4 0 .8-.3.8-.8v-5.6c0-.5-.4-.8-.8-.8zm-.7 5.6H31v-4.1h4.1v4.1zM46.1 23.8h-5.6c-.4 0-.8.3-.8.8v5.6c0 .4.3.8.8.8h5.6c.4 0 .8-.3.8-.8v-5.6c-.1-.5-.4-.8-.8-.8zm-.8 5.6h-4.1v-4.1h4.1v4.1z"/><path d="m64.8 32.4-2.9-2.7c-.3-.3-.8-.3-1.1.1-.3.3-.3.8.1 1.1l1.5 1.3H50.9V21.6h9.8c.4 0 .8-.3.8-.8V13l1.3 1.5c.3.3.8.3 1.1.1.3-.3.3-.8.1-1.1l-2.7-2.9c-.3-.3-.8-.3-1.1 0l-2.7 2.9c-.3.3-.3.8.1 1.1.3.3.8.3 1.1-.1L60 13v7.1h-9V7.4c0-.4-.3-.8-.8-.8H15.9c-.4 0-.8.3-.8.8V20h-9v-7l1.3 1.5c.3.3.8.3 1.1.1.3-.3.3-.8.1-1.1l-2.7-2.9c-.3-.3-.8-.3-1.1 0l-2.7 2.9c-.3.3-.3.8.1 1.1.3.3.8.3 1.1-.1L4.6 13v7.8c0 .4.3.8.8.8h9.8v10.7H3.7L5.2 31c.3-.3.3-.8.1-1.1-.3-.3-.8-.3-1.1-.1l-2.9 2.7c-.2.1-.3.3-.3.5s.1.4.2.6l2.9 2.7c.3.3.8.3 1.1-.1.3-.3.3-.8-.1-1.1l-1.5-1.3H15v10.7H5.4c-.4 0-.8.3-.8.8V53l-1.3-1.5c-.3-.3-.8-.3-1.1-.1-.3.3-.3.8-.1 1.1l2.7 2.9c.1.2.3.2.6.2.2 0 .4-.1.6-.2l2.7-2.9c.3-.3.3-.8-.1-1.1-.3-.3-.8-.3-1.1.1L6.1 53v-7.1h9v5.9h-2.8c-.4 0-.8.3-.8.8v4.3c0 .4.3.8.8.8h41.3c.4 0 .8-.3.8-.8v-4.3c0-.4-.3-.8-.8-.8h-2.8v-5.9h9V53l-1.3-1.5c-.3-.3-.8-.3-1.1-.1-.3.3-.3.8-.1 1.1l2.7 2.9c.1.2.3.2.6.2.2 0 .4-.1.6-.2l2.7-2.9c.3-.3.3-.8-.1-1.1-.3-.3-.8-.3-1.1.1L61.4 53v-7.8c0-.4-.3-.8-.8-.8h-9.8V33.7h11.4L60.7 35c-.3.3-.3.8-.1 1.1.3.3.8.3 1.1.1l2.9-2.7c.2-.1.2-.3.2-.6.2-.1.1-.3 0-.5zM52.9 56.2H13.1v-2.8h39.8v2.8zM27.6 38.7h10.8v13.2H27.6V38.7zm12.3 13.2V38.7h1.6c.4 0 .8-.3.8-.8 0-.4-.3-.8-.8-.8h-17c-.4 0-.8.3-.8.8 0 .4.3.8.8.8h1.6v13.2h-9.5V8.2h32.7v43.7h-9.4zM60.6 9.2c1.9 0 3.4-1.5 3.4-3.4s-1.5-3.4-3.4-3.4-3.4 1.5-3.4 3.4c0 1.8 1.6 3.4 3.4 3.4zm0-5.3c1 0 1.9.9 1.9 1.9 0 1-.9 1.9-1.9 1.9-1 0-1.9-.9-1.9-1.9 0-1.1.9-1.9 1.9-1.9zM60.6 56.8c-1.9 0-3.4 1.5-3.4 3.4s1.5 3.4 3.4 3.4 3.4-1.5 3.4-3.4c0-1.8-1.5-3.4-3.4-3.4zm0 5.3c-1 0-1.9-.9-1.9-1.9 0-1 .9-1.9 1.9-1.9 1 0 1.9.9 1.9 1.9 0 1.1-.8 1.9-1.9 1.9zM5.4 9.2c1.9 0 3.4-1.5 3.4-3.4S7.3 2.4 5.4 2.4 2 3.9 2 5.8c0 1.8 1.5 3.4 3.4 3.4zm0-5.3c1 0 1.9.9 1.9 1.9 0 1-.9 1.9-1.9 1.9-1 0-1.9-.9-1.9-1.9 0-1.1.8-1.9 1.9-1.9zM5.4 56.8c-1.9 0-3.4 1.5-3.4 3.4s1.5 3.4 3.4 3.4 3.4-1.5 3.4-3.4c0-1.8-1.6-3.4-3.4-3.4zm0 5.3c-1 0-1.9-.9-1.9-1.9 0-1 .9-1.9 1.9-1.9 1 0 1.9.9 1.9 1.9 0 1.1-.9 1.9-1.9 1.9z"/></svg>