<svg xmlns="http://www.w3.org/2000/svg" xmlns:xlink="http://www.w3.org/1999/xlink" viewBox="0 0 32 32"><defs><linearGradient id="a" x1="2.5" x2="29.5" y1="16.252" y2="16.252" gradientUnits="userSpaceOnUse"><stop offset="0" stop-color="#15ffee"/><stop offset="1" stop-color="#73c3ff"/></linearGradient><linearGradient id="b" x1="15.5" x2="16.5" y1="18.246" y2="18.246" xlink:href="#a"/><linearGradient id="c" x1="15.5" x2="16.5" y1="8.659" y2="8.659" xlink:href="#a"/></defs><g data-name="Layer 48"><path fill="url(#a)" d="M16,2.752a13.5,13.5,0,1,0,13.5,13.5A13.5151,13.5151,0,0,0,16,2.752Zm0,26a12.5,12.5,0,1,1,12.5-12.5A12.5141,12.5141,0,0,1,16,28.752Z"/><path fill="url(#b)" d="M16,10.7393a.5.5,0,0,0-.5.5V25.252a.5.5,0,0,0,1,0V11.2393A.5.5,0,0,0,16,10.7393Z"/><path fill="url(#c)" d="M16,7.6436a.5.5,0,0,0-.5.5V9.1748a.5.5,0,0,0,1,0V8.1436A.5.5,0,0,0,16,7.6436Z"/></g></svg>