<svg xmlns="http://www.w3.org/2000/svg" data-name="Layer 1" viewBox="0 0 128 128"><path d="M2.12 26.05c4.27-.26 6.79.46 8.24 1.22a56.45 56.45 0 0 1-7.75 2.26 2 2 0 0 0 .39 4 2 2 0 0 0 .39 0A56.53 56.53 0 0 0 14.27 30a1.86 1.86 0 0 0 1.05-.49c5.12-2.38 10.77-3.62 17.34 2.3a2 2 0 0 0 2.84-.17 21.4 21.4 0 0 1 9.33-5.77h.09A2 2 0 0 0 46 25.59a13.66 13.66 0 0 1 1.92-.23c4.06-.17 8 1.58 11.68 5.17a2 2 0 0 0 2.48.24c.52-.34 4.87-3 8.45-.07a28.38 28.38 0 0 0-2.81 1.93 2 2 0 0 0 2.54 3.09A31.18 31.18 0 0 1 82.56 30h.12a2 2 0 0 0 .82-.18c5.86-1 12.93 0 19.6 6.63a15.66 15.66 0 0 1 3.41-.45l.41 0a2 2 0 0 0-.49-1.91c-.34-.35-.68-.66-1-1 4.13-1.57 12.69-3.62 19.18 2.8a2 2 0 0 0 2.81-2.84A18.53 18.53 0 0 0 118.17 28a16.83 16.83 0 0 1 7.71-1 2 2 0 0 0 .24-4c-9.37-.56-12.63 2.93-13.62 4.51a29.68 29.68 0 0 0-10.55 2.68 24.56 24.56 0 0 0-17-4.6c0-.35 0-.7 0-1a21 21 0 0 0-41.85-2.45 25.08 25.08 0 0 0-9.26 5.43c-7.33-5.72-14-4.43-19.3-2.15-1.65-1.69-5.23-3.83-12.71-3.38a2 2 0 1 0 .24 4zM64 8A16.83 16.83 0 0 1 81 24.61a16.11 16.11 0 0 1-.1 1.74 35.07 35.07 0 0 0-6.65 2.36c-4.17-4.54-9.67-3.62-12.95-2.06-4.21-3.7-8.75-5.48-13.52-5.29l-.45 0A16.83 16.83 0 0 1 64 8zM114.56 70.23a20.79 20.79 0 0 1 .48 4.05 26.17 26.17 0 0 1 2.89.44 2 2 0 0 0 .83-3.91A29.36 29.36 0 0 0 114.56 70.23zM30.76 78.05c4.38 2.53 8.08 3.46 11.36 3.46 4.85 0 8.78-2.06 12.63-4.07s7.47-3.91 12.15-3.88a6 6 0 0 1-.73-2.2c-.07-.61-.12-1.2-.15-1.78-5.22.19-9.33 2.33-13.13 4.32-6 3.14-11.18 5.85-20.15.69-8.09-4.66-15.63-6.13-22.42-4.38a2 2 0 0 0 1 3.87C17.08 72.6 23.61 73.93 30.76 78.05zM74.72 55.26c.33-.12.66-.26 1-.37a29.38 29.38 0 0 1-.2-3.6c-10.22-3.86-16.78-.45-22.62 2.61-6 3.14-11.18 5.85-20.15.69a35.09 35.09 0 0 0-15.5-5.05 2 2 0 0 0-.21 4 31.17 31.17 0 0 1 13.71 4.53c4.38 2.53 8.08 3.46 11.36 3.46 4.85 0 8.78-2.06 12.63-4.07C60.43 54.47 65.81 51.66 74.72 55.26zM9.25 81.65a2 2 0 0 0-1.1 2.61l2.84 7a2 2 0 0 0 3.7-1.51l-2.84-7A2 2 0 0 0 9.25 81.65z"/><path d="M126,117h-3.5l1.42-5a2,2,0,0,0,.08-.55,4.65,4.65,0,0,0-7.17-3.91l-2.4,1.37-3-3.78-.15-.17a4.6,4.6,0,0,0-2.78-1.31c2.36-17-5.32-27.47-8.71-31.17,2.73,1.79,5.52,4.17,7,7.07a2,2,0,0,0,3.7-.41c.07-.27,1.74-6.62-1.38-11.92A12,12,0,0,0,106,63.66a66.89,66.89,0,0,1,19.72.42,2,2,0,0,0,2.11-2.83c-.07-.14-5.91-12-24-8.2,4-3.87,7.3-8.27,5.82-11.49-.53-1.16-1.77-1.68-3.71-1.54-4.65.32-12.55,3.83-16.76,11.79a11.59,11.59,0,0,0-7.09-5,2,2,0,0,0-2.39,1.68,24.42,24.42,0,0,0,.8,9.68A11.51,11.51,0,0,0,73,60.85c-2.42,2.22-3.36,5.6-2.82,10A2,2,0,0,0,74,71.3,6.19,6.19,0,0,1,77.18,68c-3.89,4.43-8,12.38-3.74,24.17a2,2,0,0,0,3.84-1.06s-.89-5,4.09-9.35a27.89,27.89,0,0,0,4.88-5.58c1.39,6.63,4.69,16.45,12.39,21.46a2,2,0,0,0,1.08.32,2,2,0,0,0,1.62-3.18c-.13-.18-3.23-4.58-2.05-13.27a18.8,18.8,0,0,0,.15-3.21c3.35,4.86,7.37,13.87,4.73,27.17l-1.57,1.57-.87-.44a4.66,4.66,0,0,0-6.43,2.49l-1.38-.28a4.65,4.65,0,0,0-4.71,7.25l.64.9H57.72a2,2,0,0,0-.31-.41l-3-3C51.37,110.44,45.84,109,42,109H23c-4.93,0-10.49-3.54-12.11-7.66l-7-20A2,2,0,0,0,.11,82.66l7,20.07c2,5.18,7.88,9.34,13.86,10.12V117H2a2,2,0,0,0,0,4H126a2,2,0,0,0,0-4ZM93.76,64.89a2,2,0,0,0-2.21,3.17c0,.06,4.75,5.75,3.78,12.95a30.18,30.18,0,0,0-.12,7.46C90,80.42,89.28,69.4,89.27,69.25a2,2,0,0,0-1.84-1.87h-.16a2,2,0,0,0-1.95,1.56,20.86,20.86,0,0,1-6.59,9.85,17.3,17.3,0,0,0-3.1,3.55,18.07,18.07,0,0,1,8.48-15.08,2,2,0,0,0-.66-3.72,13.06,13.06,0,0,0-8.54,1.19,4.45,4.45,0,0,1,.76-.92c2.16-2,6.26-1.71,7.65-1.42a2,2,0,0,0,2.08-3,14.78,14.78,0,0,1-1.87-7.62,11.68,11.68,0,0,1,3.93,5.47,2,2,0,0,0,1.91,1.41h0a2,2,0,0,0,1.91-1.42A18.91,18.91,0,0,1,106,44c-.79,2.3-6.09,7.83-13.21,12.87a2,2,0,0,0,2,3.45c14.82-6.72,22.71-3.85,26.49-.86-14.85-1.43-21.73,1.64-22,1.78A2,2,0,0,0,99.52,65a9.45,9.45,0,0,1,6.19,4.18,9.94,9.94,0,0,1,1.25,3.9C101.71,67.84,94.16,65,93.76,64.89ZM37,117H25v-4H37Zm4,0v-4h1c3,0,7.43,1.19,9.59,3.41l.59.59Zm77.35,0H94.76l-2.28-3.22a.65.65,0,0,1,.66-1l2.77.55A2.58,2.58,0,0,0,99,110.79a.65.65,0,0,1,.94-.58l1.79.9a2.58,2.58,0,0,0,3-.48l2.83-2.83a.65.65,0,0,1,.86-.05l3.69,4.67.15.17a2.59,2.59,0,0,0,3.18.37l3.44-2,.12-.07a.63.63,0,0,1,.67,0,.63.63,0,0,1,.32.38Z"/></svg>