<svg xmlns="http://www.w3.org/2000/svg" enable-background="new 0 0 52 52" viewBox="0 0 52 52"><path d="M47.8889,16.4214c0.5522,0,1-0.4478,1-1V9.1079c0-0.5522-0.4478-1-1-1h-2.9307V5.7803C44.9583,3.6958,43.2625,2,41.178,2
		C31.6341,2,23.6989,2,9.0828,2c-3.293,0-5.9717,2.6787-5.9717,5.9717v36.0562C3.1111,47.3208,5.7898,50,9.0828,50
		c9.2871,0,17.5482,0,32.0952,0c2.0845,0,3.7803-1.6958,3.7803-3.7808v-2.3276h2.9307c0.5522,0,1-0.4478,1-1v-6.3135
		c0-0.5522-0.4478-1-1-1h-2.9307v-0.8433h2.9307c0.5522,0,1-0.4478,1-1v-6.3135c0-0.5522-0.4478-1-1-1h-2.9307v-0.8433h2.9307
		c0.5522,0,1-0.4478,1-1v-6.3135c0-0.5522-0.4478-1-1-1h-2.9307v-0.8433H47.8889z M46.8889,10.1079v4.3135h-1.9307v-4.3135H46.8889z
		 M9.0828,48c-2.1899,0-3.9717-1.7817-3.9717-3.9722V7.9717C5.1111,5.7817,6.8928,4,9.0828,4h1.4839v44H9.0828z M42.9583,46.2192
		c0,0.9819-0.7988,1.7808-1.7803,1.7808H12.5667V4H41.178c0.9814,0,1.7803,0.7988,1.7803,1.7803v3.3276v6.3135v2.8433v6.3135v2.8433
		v6.3135v2.8433v6.3135V46.2192z M46.8889,37.5781v4.3135h-1.9307v-4.3135H46.8889z M46.8889,28.4214v4.3135h-1.9307v-4.3135
		H46.8889z M46.8889,19.2646v4.3135h-1.9307v-4.3135H46.8889z"/><path d="M26.7371 27.6899c5.6457 0 10.3628-4.6063 10.3628-10.3633 0-5.7139-4.6489-10.3628-10.3628-10.3628s-10.3628 4.6489-10.3628 10.3628C16.3743 23.0982 21.0914 27.6899 26.7371 27.6899zM24.2585 16.1577c0-1.3667 1.1118-2.479 2.4785-2.479s2.479 1.1123 2.479 2.479c0 1.3613-1.1123 2.4692-2.479 2.4692S24.2585 17.519 24.2585 16.1577zM26.7371 20.627c2.2855 0 4.4243.9122 5.9861 2.5276-1.5201 1.5612-3.6401 2.5354-5.9861 2.5354-2.3461 0-4.4662-.9743-5.9863-2.5356C22.3126 21.5393 24.4514 20.627 26.7371 20.627zM26.7371 8.9639c4.6113 0 8.3628 3.7515 8.3628 8.3628 0 1.5427-.4273 2.9843-1.1588 4.2263-1.1171-1.0899-2.4518-1.9003-3.9135-2.3876.7309-.7957 1.1884-1.8458 1.1884-3.0077 0-2.4697-2.0093-4.479-4.479-4.479-2.4692 0-4.4785 2.0093-4.4785 4.479 0 1.1618.4575 2.212 1.1883 3.0076-1.4618.4872-2.7966 1.2977-3.9138 2.3876-.7314-1.242-1.1588-2.6836-1.1588-4.2263C18.3743 12.7153 22.1257 8.9639 26.7371 8.9639zM37.0784 36.1099H17.3743c-.5522 0-1 .4478-1 1s.4478 1 1 1h19.7041c.5522 0 1-.4478 1-1S37.6306 36.1099 37.0784 36.1099zM37.0784 41.3838H17.3743c-.5522 0-1 .4478-1 1s.4478 1 1 1h19.7041c.5522 0 1-.4478 1-1S37.6306 41.3838 37.0784 41.3838z"/></svg>