<svg xmlns="http://www.w3.org/2000/svg" viewBox="0 0 64 64"><g data-name="Layer 2"><path d="M32,15a11.93,11.93,0,0,0-11.77,9.83A1,1,0,0,0,21,26l.18,0a1,1,0,0,0,1-.82A9.93,9.93,0,0,1,32,17a1,1,0,1,0,0-2Z"/><path d="M53.13,46a32,32,0,0,1-4.24-15.91V27.06A17,17,0,0,0,37.07,10.92V10a5.12,5.12,0,1,0-10.24,0v1A17,17,0,0,0,15,27.06v3.06A32,32,0,0,1,10.78,46l-2.7,4.7a1,1,0,0,0,.87,1.5H23.81a8.25,8.25,0,0,0,16.28,0H55a1,1,0,0,0,.87-1.5ZM28.83,10.13V10a3.12,3.12,0,1,1,6.24,0v.17Zm3.12,47a6.24,6.24,0,0,1-6.11-4.92H38.06A6.24,6.24,0,0,1,32,57.16ZM10.67,50.23,12.51,47A34,34,0,0,0,17,30.13V27.06a14.93,14.93,0,0,1,29.87,0v3.06A34,34,0,0,0,51.4,47l1.84,3.2Z"/><path d="M11.12 27.25a1 1 0 0 0-1.39.24 9.87 9.87 0 0 0 0 11.3 1 1 0 0 0 1.64-1.15 7.87 7.87 0 0 1 0-9A1 1 0 0 0 11.12 27.25zM4 33.14a13.75 13.75 0 0 1 2.49-7.91 1 1 0 1 0-1.64-1.14 15.81 15.81 0 0 0 0 18.1A1 1 0 1 0 6.49 41 13.71 13.71 0 0 1 4 33.14zM52.88 27.25a1 1 0 0 0-.24 1.39 7.87 7.87 0 0 1 0 9 1 1 0 1 0 1.64 1.15 9.87 9.87 0 0 0 0-11.3A1 1 0 0 0 52.88 27.25zM57.76 23.84a1 1 0 0 0-.25 1.39 13.8 13.8 0 0 1 0 15.81 1 1 0 0 0 1.64 1.15 15.81 15.81 0 0 0 0-18.1A1 1 0 0 0 57.76 23.84z"/></g></svg>