<svg xmlns="http://www.w3.org/2000/svg" fill="none" viewBox="0 0 24 24"><path fill="#000" fill-rule="evenodd" d="M16.0723 4.02447C15.1062 3.04182 13.7428 2.5 12.1519 2.5C10.5611 2.5 9.19767 3.04182 8.23161 4.02447C7.26629 5.00636 6.73637 6.38891 6.73637 8C6.73637 10.169 7.68075 11.567 8.84954 12.4062C9.07669 12.5692 9.31144 12.7107 9.54825 12.8327C8.24209 13.1916 7.18152 13.8173 6.31802 14.5934C4.95266 15.8205 4.10641 17.3993 3.53627 18.813C3.43299 19.0691 3.55687 19.3604 3.81297 19.4637C4.06907 19.567 4.36041 19.4431 4.46369 19.187C5.00636 17.8414 5.7814 16.4202 6.98647 15.3371C8.17944 14.265 9.82003 13.5 12.1519 13.5C14.3319 13.5 15.9057 14.1685 17.074 15.1279C18.2519 16.0953 19.0453 17.3816 19.6137 18.6532C19.9929 19.5016 19.3273 20.5 18.2827 20.5H6.74482C6.46868 20.5 6.24482 20.7239 6.24482 21C6.24482 21.2761 6.46868 21.5 6.74482 21.5H18.2827C19.9348 21.5 21.2479 19.8588 20.5266 18.2452C19.9232 16.8952 19.0503 15.4569 17.7086 14.3551C16.9122 13.7011 15.9602 13.1737 14.8203 12.8507C15.43 12.5136 15.9311 12.0662 16.33 11.5591C17.1928 10.462 17.5675 9.10016 17.5675 8C17.5675 6.38891 17.0376 5.00636 16.0723 4.02447ZM15.3592 4.72553C16.1143 5.49364 16.5675 6.61109 16.5675 8C16.5675 8.89984 16.2541 10.038 15.5439 10.9409C14.8474 11.8265 13.7606 12.5 12.1519 12.5C11.5013 12.5 10.3789 12.2731 9.43278 11.5938C8.51245 10.933 7.73637 9.83102 7.73637 8C7.73637 6.61109 8.18957 5.49364 8.94471 4.72553C9.6991 3.95818 10.7935 3.5 12.1519 3.5C13.5104 3.5 14.6048 3.95818 15.3592 4.72553Z" clip-rule="evenodd"/></svg>