<svg xmlns="http://www.w3.org/2000/svg" viewBox="0 0 32 32"><path d="M22.063.834a.5.5 0 0 0-.083.016l-1.994.535a.5.5 0 0 0 .26.967l.815-.22C17.553 7.923 9.606 14.93 1.633 16.51a.5.5 0 0 0 .195.982c8.41-1.667 16.453-8.808 20.108-14.875l.222.834a.5.5 0 1 0 .967-.258l-.533-1.99a.5.5 0 0 0-.479-.369.5.5 0 0 0-.05 0zm-1.586 7.082a.5.5 0 0 0-.5.5v9.12a6.515 6.515 0 0 1 1-.343V8.916h2v6a1 1 0 0 1 1 1v-7.5a.5.5 0 0 0-.5-.5h-3zm-6 5.996v.004a.5.5 0 0 0-.5.5v8.5a1 1 0 0 1 .044-.295 1 1 0 0 1 .079-.183 1 1 0 0 1 .877-.522V14.92h2v5.234c.279-.472.613-.907 1-1.289v-4.443a.5.5 0 0 0-.5-.5l-3-.01zm7.5 2.004v2.023a5.509 5.509 0 0 0-4.975 4.977h-2.025v1h2.025a5.509 5.509 0 0 0 4.975 4.975v2.025h1v-2.025a5.509 5.509 0 0 0 4.974-4.975h2.026v-1H27.95a5.509 5.509 0 0 0-4.974-4.977v-2.023h-1zM8.477 18a.5.5 0 0 0-.5.5v12a.5.5 0 0 0 .5.5h3a.5.5 0 0 0 .5-.5v-12a.5.5 0 0 0-.5-.5h-3zm13.5.965v1.002a3.491 3.491 0 0 0-2.95 2.949h-1a4.46 4.46 0 0 1 3.95-3.951zm1 0a4.46 4.46 0 0 1 3.949 3.951h-1a3.491 3.491 0 0 0-2.95-2.95v-1.001zm-14 .035h2v11h-2V19zm-6.5 1a.5.5 0 0 0-.5.5v10a.5.5 0 0 0 .5.5h3a.5.5 0 0 0 .5-.5v-10a.5.5 0 0 0-.5-.5h-3zm19.494.965h.006v1.043a1.509 1.509 0 0 0-.907.908h-1.043a2.49 2.49 0 0 1 1.944-1.951zm1.006 0a2.49 2.49 0 0 1 1.949 1.951h-1.043a1.509 1.509 0 0 0-.906-.908v-1.043zm-20 .035h2v9h-2v-9zm11 2.916v6.496a.5.5 0 0 0 .5.5l3-.01a.5.5 0 0 0 .5-.5V27.96a6.355 6.355 0 0 1-1-1.29v3.235h-2v-4.992a1 1 0 0 1-1-.996zm4.05 0h1a3.493 3.493 0 0 0 2.95 2.95v1a4.46 4.46 0 0 1-3.95-3.95zm2 0h1.043c.152.421.485.755.907.906v1.043a2.49 2.49 0 0 1-1.95-1.949zm3.856 0h1.043a2.49 2.49 0 0 1-1.95 1.95v-1.044a1.51 1.51 0 0 0 .907-.906zm2.043 0h1a4.46 4.46 0 0 1-3.95 3.95v-1a3.493 3.493 0 0 0 2.95-2.95zm-5.95 5.377v1.119a.5.5 0 0 0 .5.5h.5V29.635a6.525 6.525 0 0 1-1-.342z" color="#000" font-family="sans-serif" font-weight="400" overflow="visible" style="line-height:normal;text-indent:0;text-align:start;text-decoration-line:none;text-decoration-style:solid;text-decoration-color:#000;text-transform:none;block-progression:tb;isolation:auto;mix-blend-mode:normal"/></svg>