<svg xmlns="http://www.w3.org/2000/svg" viewBox="0 0 128 128"><path fill="#424142" d="M127.242 78.531c-1.721-3.336-7.027-3.336-8.811-3.336-9.385 0-24.451 4.099-29.877 5.665-1.221-2.832-4.51-5.434-12.477-5.434-4.789 0-9.293.963-9.49 1.005-1.475.325-2.828.246-4.58-.266-3.57-1.043-6.594-3.164-9.795-5.411-3.254-2.284-6.619-4.646-10.688-5.877-6.688-2.025-12.977-2.497-18.561-1.395-2.746.543-5.344 1.499-7.854 2.425-2.332.858-4.537 1.67-6.83 2.17-.473.103-1.018.251-1.6.413-1.156.319-2.465.682-3.414.682a1.83 1.83 0 01-.512-.055L0 68.322v26.906c0 1.651 1.449 2.716 3.113 2.716.816 0 1.658-.262 2.475-.514.398-.124.852-.264 1.104-.302l.443-.067c3.365-.499 6.844-1.018 10.111-1.018 4.697 0 28.051 6.018 36.654 8.338l.115.027c1.896.394 3.736.591 5.467.591 3.797 0 5.877-.952 6.059-1.041 2.895-1.32 8.262-2.839 8.316-2.854 9.291-2.623 45.621-14.067 45.938-14.168 5.02-1.442 7.6-3.169 8.115-5.436a3.535 3.535 0 00-.668-2.969zm-8.597 4.486c-.365.115-36.637 11.541-45.871 14.147-.23.064-5.713 1.615-8.908 3.072-.016.007-1.521.672-4.383.672-1.443 0-2.992-.166-4.602-.496-3.486-.939-31.592-8.46-37.635-8.46-3.563 0-7.189.541-10.697 1.063l-.443.065c-.557.084-.543.265-1.106.438-.025.009-.973-.46-1-.451-.002-8.54 0-16.036 0-20.046 1.184-.133 2.654-.282 3.744-.583.504-.14.973-.271 1.381-.36 2.568-.557 5.006-1.455 7.365-2.325 2.475-.911 4.811-1.771 7.246-2.254 4.939-.977 10.578-.533 16.635 1.3 3.451 1.045 6.41 3.123 9.543 5.32 3.328 2.335 6.77 4.751 10.977 5.98 2.393.698 4.439.793 6.549.333.172-.038 4.271-.914 8.639-.914 3.941 0 8.713.711 9.053 4.102l.125 1.243c-.33.129-.662.257-.992.377-1.883.674-3.832 1.127-5.797 1.572-1.969.415-3.977.87-5.963 1.415-1.926.557-3.773.986-5.58.687-1.838-.259-3.885-.891-5.914-1.215-2.01-.338-4.064-.631-6.113-.75a42.653 42.653 0 00-6.162.041c-2.025.159-4.023.305-6.057.094 1.947.656 4.041.789 6.066.905a62.3 62.3 0 015.994.543c1.986.303 3.951.623 5.924 1.066.969.221 1.953.421 2.922.672.969.236 1.988.517 3.072.671 2.244.328 4.461-.236 6.395-.859 1.9-.637 3.848-1.115 5.811-1.725 1.959-.583 3.924-1.269 5.785-2.19.234-.127.498.05.732-.075l2.346-.721c.197-.061 19.939-6.083 30.707-6.083 3.77 0 5.08.768 5.246 1.173l.117.286c-.429.4-1.689 1.274-5.151 2.27zM76 67.101c12.15 0 22-9.872 22-22.05C98 32.872 88.15 23 76 23s-22 9.872-22 22.051c0 12.178 9.85 22.05 22 22.05zm0-40.092c9.925 0 18 8.094 18 18.042 0 9.947-8.075 18.041-18 18.041s-18-8.094-18-18.041c0-9.948 8.075-18.042 18-18.042z"/><path fill="#424142" d="M75.279 50.235c-1.725-.101-3.247-.755-4.323-1.429l-.982 3.053c.971.618 2.663 1.225 4.431 1.414l-.15 2.517 2.619.156.164-2.728c3.071-.325 4.832-2.24 4.978-4.601.144-2.418-1.011-3.947-4.1-5.253-2.224-.959-3.116-1.596-3.065-2.448.044-.74.646-1.478 2.364-1.37 1.909.11 3.115.799 3.758 1.152l.972-2.947c-.9-.483-2.066-.95-3.811-1.107l.139-2.334-2.592-.156-.149 2.522c-2.866.358-4.615 2.089-4.758 4.449-.151 2.573 1.7 4.015 4.475 5.14 1.946.786 2.754 1.47 2.694 2.478-.063 1.037-1.13 1.582-2.664 1.492z"/></svg>