<svg xmlns="http://www.w3.org/2000/svg" data-name="Layer 1" viewBox="0 0 128 128"><path d="M64,0a64,64,0,1,0,64,64A64.07239,64.07239,0,0,0,64,0ZM32.332,13.0705c1.004,1.65533,2.53369,4.91382,1.61719,8.3172-1.0166,3.77783-4.76367,6.92383-11.13574,9.35156a53.6018,53.6018,0,0,0-11.55969,4.68231A60.438,60.438,0,0,1,32.332,13.0705ZM4.94647,53.4574A7.31532,7.31532,0,0,1,8.39258,55.666c.06348.08936,4.6875,4.83008,4.41406,13.58008a9.85137,9.85137,0,0,0,2.95605,7.498,11.528,11.528,0,0,0,2.55957,1.83252,7.61766,7.61766,0,0,1,3.27246,8.99316c-.83417,1.45355-4.14789,7.58911-4.618,13.63055A59.68273,59.68273,0,0,1,4.94647,53.4574Zm40.50446,67.59418c5.34589-2.32288,16.22009-5.29578,26.682,2.38226a59.47968,59.47968,0,0,1-26.682-2.38226Zm31.86243,1.44116C61.48,108.05518,43.44659,117.3808,40.37842,119.14642a60.2049,60.2049,0,0,1-18.40454-12.37726c-3.02014-4.59644,1.24377-14.05432,3.17944-17.36291a2.02077,2.02077,0,0,0,.167-.36523,11.6396,11.6396,0,0,0-5.0625-13.96338,7.80508,7.80508,0,0,1-1.74512-1.23779,5.85759,5.85759,0,0,1-1.708-4.46826c.30371-9.72119-4.39355-15.23486-5.24707-16.15332a11.65185,11.65185,0,0,0-5.77753-3.71094c.44122-1.77179.96625-3.50977,1.5614-5.21582,2.06757-4.88794,12.63513-8.66058,16.59894-9.71338.06543-.01758.13184-.03857.19531-.0625,7.7207-2.9209,12.3252-7.00146,13.68652-12.12793,1.26544-4.76465-.66644-9.06555-2.02667-11.32593A59.531,59.531,0,0,1,55.174,4.65454a6.3897,6.3897,0,0,1,.27429,4.34106c-.43359,1.16309-2.04,1.82764-3.64746,2.40918A39.7511,39.7511,0,0,0,44.543,14.77,5.013,5.013,0,0,0,42.80761,21.293c1.0494,2.18862,3.39093,3.13182,5.69828,3.25941a15.825,15.825,0,0,0,8.44894-2.31115,21.01315,21.01315,0,0,0,2.37036-1.49367c.94236-.7075,3.829-2.85731,5.44421-2.77979,2.5515.12246,2.78473-3.869.19541-3.99511a8.84577,8.84577,0,0,0-4.60376,1.26164c-1.37312.75124-2.52622,1.78807-3.84153,2.61385-1.94434,1.2207-4.50488,2.63281-7.082,2.7168-.751.03076-2.55272-.02246-3.02342-1.00244a1.10748,1.10748,0,0,1,.20313-1.37256,35.92552,35.92552,0,0,1,6.543-3.02344C55,14.50146,58.0791,13.38818,59.19629,10.394a9.94432,9.94432,0,0,0,.04987-6.18835C60.81647,4.08191,62.39844,4,64,4A59.79353,59.79353,0,0,1,80.85535,6.42676,1.98793,1.98793,0,0,0,84.054,7.45862a59.987,59.987,0,0,1-6.74066,115.03412Z"/><path d="M39.33008 61.43994a1.89727 1.89727 0 0 0 .83008.18994 2.0123 2.0123 0 1 0-.83008-.18994zM63.41016 30.5H63.54a1.94411 1.94411 0 1 0-.12988 0zM40.87012 66.38965A1.99789 1.99789 0 1 0 38.87988 68.5a.36269.36269 0 0 0 .09961-.01025A1.98805 1.98805 0 0 0 40.87012 66.38965zM61.5 36.63965a1.96332 1.96332 0 0 0 1.05957-.2998 2.0126 2.0126 0 1 0-1.05957.2998zM56.53027 42.08984a2.004 2.004 0 0 0 .42969 3.96A2.2085 2.2085 0 0 0 57.39941 46a2.00279 2.00279 0 1 0-.86914-3.91016zM55.04 39.37988a1.91385 1.91385 0 0 0 .51953-.06982 1.99159 1.99159 0 1 0-.51953.06982zM47.47949 75.25a2.00337 2.00337 0 0 0-1.2998 3.79 2.16877 2.16877 0 0 0 .65039.10986 2.00556 2.00556 0 0 0 .64941-3.8999zM40.01953 71.42969A1.99966 1.99966 0 0 0 41.25 75.00977a2.02709 2.02709 0 0 0 1.21973-.41992 1.99938 1.99938 0 1 0-2.4502-3.16016zM51.08008 44.15967a1.95054 1.95054 0 0 0 .41016-.04 2.00143 2.00143 0 0 0-.81055-3.91992 1.98947 1.98947 0 0 0-1.5498 2.36035h-.00977A2.005 2.005 0 0 0 51.08008 44.15967zM45.9502 56.06006a1.99112 1.99112 0 1 0-1.14062.35986 1.9663 1.9663 0 0 0 1.14063-.3501zM53.29 51.56982a1.999 1.999 0 1 0-1.98047 2.27979 2.40023 2.40023 0 0 0 .27051-.02A2.01089 2.01089 0 0 0 53.29 51.56982zM78.56934 20.54c.06055 0 .12012-.01025.18066-.01025a1.97308 1.97308 0 1 0-.18066.01025zM77.9502 13.5a1.93738 1.93738 0 0 0 .80957.16992A1.99165 1.99165 0 1 0 77.9502 13.5zM83.14941 50.29a2.54886 2.54886 0 0 0 .38086-.03027 2.03226 2.03226 0 1 0-.38086.03027zM74.91016 25.27979a.35932.35932 0 0 0 .10938.01025 2.14562 2.14562 0 1 0-.10937-.01025zM68.00977 25.77979A2.05335 2.05335 0 0 0 68.5 25.71973a2.00293 2.00293 0 1 0-.49023.06006zM63.35938 52.00977a2.00312 2.00312 0 0 0 1.57031 2.3501 1.82658 1.82658 0 0 0 .40039.04 2.00006 2.00006 0 1 0-1.9707-2.39014zM70.16016 53.84961A2.00244 2.00244 0 0 0 71.72949 56.21a2.58449 2.58449 0 0 0 .39063.04 2.00015 2.00015 0 1 0-1.96-2.40039zM63.74023 40.98a1.99938 1.99938 0 0 0 .18945 3.98975 1.2445 1.2445 0 0 0 .19043-.00977 1.999 1.999 0 0 0-.37988-3.98zM68.96973 42.6499a2.00424 2.00424 0 0 0 1.87012 2.12988h.12988a2.00217 2.00217 0 1 0-2-2.12988zM89.63965 86.02a2.0013 2.0013 0 0 0-.32031 3.98975.89854.89854 0 0 0 .16016.01025 2.00348 2.00348 0 0 0 .16016-4zM83.39941 99.31006a1.99423 1.99423 0 1 0 2.82031-.05029A1.9826 1.9826 0 0 0 83.39941 99.31006zM89.2998 93.07959A2.00259 2.00259 0 0 0 88.38965 96.98a2.31545 2.31545 0 0 0 .4502.0498 2.00158 2.00158 0 0 0 .46-3.9502zM53.92969 76.73975A1.99954 1.99954 0 1 0 53.4502 80.71a1.96065 1.96065 0 0 0 .23926.00977 1.99741 1.99741 0 0 0 .24023-3.98zM79.83008 55.10986a1.999 1.999 0 1 0-.85059.18994A1.957 1.957 0 0 0 79.83008 55.10986zM77.88965 46.08984A1.98269 1.98269 0 1 0 77.26953 46 2.21274 2.21274 0 0 0 77.88965 46.08984zM98.21 79.42969a2.0228 2.0228 0 1 0-.31055.02C98 79.44971 98.10938 79.43994 98.21 79.42969zM91.66016 71.12988a1.99651 1.99651 0 1 0 2.80957.31982A1.9922 1.9922 0 0 0 91.66016 71.12988zM91.97949 80.91992a1.99876 1.99876 0 1 0 2.82031.25977A1.99684 1.99684 0 0 0 91.97949 80.91992zM78.42969 104.02979a2.006 2.006 0 0 0-.21 2.81982 1.95211 1.95211 0 0 0 1.52051.7002 2.0001 2.0001 0 1 0-1.31055-3.52zM73.85938 106.50977a2.0014 2.0014 0 1 0-.50977 3.97021 2.31 2.31 0 0 0 .25977.00977 1.99788 1.99788 0 0 0 .25-3.98zM61.05957 76.83984v-.01025a2.00195 2.00195 0 0 0-.71 3.94043 2.188 2.188 0 0 0 .36035.02979 1.99576 1.99576 0 0 0 .34961-3.96zM60.33984 51.62988A2.002 2.002 0 1 0 58.25 53.54h.08984A2.009 2.009 0 0 0 60.33984 51.62988zM67.03027 83.73a2 2 0 1 0-2 2A1.99326 1.99326 0 0 0 67.03027 83.73zM67.22949 92.2998a2.01328 2.01328 0 1 0-.89941.21A2.07559 2.07559 0 0 0 67.22949 92.2998zM67.33984 99.23a1.96429 1.96429 0 1 0-.32031-.02A1.78022 1.78022 0 0 0 67.33984 99.23zM67.53027 102.29a1.99927 1.99927 0 0 0 1.21 3.58984 1.94473 1.94473 0 0 0 1.21-.41016A1.99792 1.99792 0 1 0 67.53027 102.29zM104.30957 55.08984h.00977a2.33153 2.33153 0 0 0 .52051.06982 1.99556 1.99556 0 1 0-.53027-.06982zM98.51953 65.57959A1.99945 1.99945 0 1 0 101.10938 66.73 1.9981 1.9981 0 0 0 98.51953 65.57959zM91.797 64.85482a1.99945 1.99945 0 1 0 2.58984 1.15039A1.9981 1.9981 0 0 0 91.797 64.85482zM100.92969 62.48a1.9996 1.9996 0 0 0 1.87988 1.31982 1.82961 1.82961 0 0 0 .68066-.12988A2.001 2.001 0 1 0 100.92969 62.48zM116.66992 57.27a1.99952 1.99952 0 1 0-1.7002 3.61963 1.94891 1.94891 0 0 0 .84961.18994 1.99965 1.99965 0 0 0 .85059-3.80957zM108.81934 56.27979a2.00661 2.00661 0 0 0-.13965 2.83008v-.01025a1.99638 1.99638 0 1 0 .13965-2.81982zM99.08984 53.54a1.99873 1.99873 0 0 0 .33008 3.96973 2.03439 2.03439 0 0 0 .33984-.02979A1.99825 1.99825 0 1 0 99.08984 53.54zM119.76953 50.7998a1.99937 1.99937 0 1 0 .73047 2.73A2.00277 2.00277 0 0 0 119.76953 50.7998zM110.41211 85.91553c-.83691-.63037-2.67969-1.46045-5.61035.06494a16.528 16.528 0 0 0-7.69824 10.20215c-.664 3.239.64044 4.78152 1.47638 5.413 1.66755 1.25959 3.89505.82858 5.61053-.06529a16.528 16.528 0 0 0 7.69824-10.20215C112.55176 88.08936 111.248 86.54688 110.41211 85.91553zm-4.54 8.87842v.00049c-2.17969 2.88916-4.43459 3.75049-4.85059 3.63867-.291-.42383-.085-2.82324 2.09863-5.71631 2.0625-2.7334 4.18652-3.64844 4.76563-3.64844a.35272.35272 0 0 1 .085.00928C108.26074 89.502 108.05566 91.90186 105.87207 94.79395zM96.33691 36.9859a6 6 0 1 0-4 0v4.017a2 2 0 0 0 4 0zm-2-7.65a2 2 0 1 1-2 2A2.00229 2.00229 0 0 1 94.33691 29.33594z"/></svg>