<svg xmlns="http://www.w3.org/2000/svg" enable-background="new 0 0 98 98" viewBox="0 0 98 98"><path d="M16.0371 95h-5.0996v2h12.1992v-2h-5.0996v-4.0996h15.0361V68.0962H1v22.8042h15.0371V95zM3 88.9004V70.0962h28.0732v18.8042H3zM97 1H64.9277v22.8047h15.0361v4.0996h-5.0996v2h12.1992v-2h-5.0996v-4.0996H97V1zM95 21.8047H66.9277V3H95V21.8047zM97 87.747c0-1.4946-1.2158-2.7109-2.7109-2.7109H67.3877c-1.4951 0-2.7109 1.2163-2.7109 2.7109v6.542c0 1.4946 1.2158 2.7109 2.7109 2.7109h26.9014C95.7842 97 97 95.7837 97 94.289V87.747zM95 94.289C95 94.6811 94.6807 95 94.2891 95H67.3877c-.3916 0-.7109-.3188-.7109-.7109v-6.542c0-.3921.3193-.7109.7109-.7109h26.9014c.3916 0 .7109.3188.7109.7109V94.289z"/><rect width="2.647" height="2" x="69.404" y="90.018"/><rect width="2.646" height="2" x="74.908" y="90.018"/><rect width="2.646" height="2" x="80.411" y="90.018"/><path d="M88.8428,75.1733c-5.0605-5.0605-13.2959-5.0605-18.3564,0l1.4141,1.4141c4.2813-4.2803,11.2471-4.2803,15.5283,0
		L88.8428,75.1733z"/><path d="M85.6152 78.4008c-1.5869-1.5874-3.7012-2.4614-5.9512-2.4614s-4.3643.874-5.9512 2.4614l1.4141 1.4141c2.502-2.502 6.5723-2.502 9.0742 0L85.6152 78.4008zM76.9395 81.6274l1.4141 1.4141c.7217-.7212 1.8965-.7222 2.6201 0l1.4141-1.4141C80.8857 80.1259 78.4414 80.125 76.9395 81.6274zM4.1289 30.895h14.6797c1.7246 0 3.127-1.4023 3.127-3.1265V4.1269c0-1.7241-1.4023-3.127-3.127-3.127H4.1289c-1.7236 0-3.126 1.4028-3.126 3.127v23.6416C1.0029 29.4926 2.4053 30.895 4.1289 30.895zM3.0029 4.1269C3.0029 3.5053 3.5078 3 4.1289 3h14.6797c.6211 0 1.127.5054 1.127 1.127v19.3335H3.0029V4.1269zM3.0029 25.4604h16.9326v2.3081c0 .6211-.5059 1.1265-1.127 1.1265H4.1289c-.6211 0-1.126-.5054-1.126-1.1265V25.4604z"/><circle cx="11.469" cy="27.145" r=".979"/><path d="M37.7012,78.1079v2h8.3926V65.1713h25.8262c4.4985,0,8.2998-3.0191,9.5039-7.137l6.7803-0.031l0.0469,10.5425l2-0.0088
		l-0.0566-12.5425l-8.4065,0.0381c0.02-0.2571,0.0393-0.5147,0.0393-0.7769c0-5.2844-4.1643-9.6041-9.387-9.8881l9.5237-6.6915
		v-6.6543h-2v5.6152l-10.7673,7.5647c-0.2108-7.4395-8.6238-12.0285-15.0071-8.1287c-1.95-4.1732-6.0173-6.9959-10.6289-7.3554
		V15.623H26.7842v2h14.7764v12.1128c-8.0303,0.6062-13.2173,8.2465-11.5254,15.6211c-5.5977-0.1948-10.2334,4.3247-10.2334,9.8989
		c0,5.4673,4.4443,9.9155,9.9063,9.9155h14.3857v12.9365H37.7012z M48.916,56.9404c-0.7695,0-1.3955-0.626-1.3955-1.3955
		s0.626-1.3955,1.3955-1.3955s1.3955,0.626,1.3955,1.3955S49.6855,56.9404,48.916,56.9404z M29.708,63.1714
		c-3.7817,0-6.9482-2.6738-7.7219-6.2314h11.4966c0.4296,1.383,1.7061,2.397,3.2283,2.397c1.8721,0,3.3955-1.5234,3.3955-3.3955
		s-1.5234-3.3955-3.3955-3.3955c-1.5212,0-2.797,1.0126-3.2275,2.394H21.8177c0.1861-4.6803,4.4602-8.3731,9.4166-7.4443
		c23.5179,0.0285,1.2938,0.0016,11.2705,0.0137v-4.7408c1.3807-0.4309,2.3926-1.7063,2.3926-3.227
		c0-1.8721-1.5234-3.3955-3.3955-3.3955s-3.3955,1.5234-3.3955,3.3955c0,1.5228,1.0146,2.7997,2.3984,3.2288v2.739h-8.3427
		c-1.9781-6.7539,3.0434-13.8325,10.3983-13.8325c4.395,0,8.3344,2.661,10.002,6.6783v9.7133h4.0715
		c0.4307,1.3812,1.7063,2.3936,3.2273,2.3936c1.8721,0,3.3955-1.5234,3.3955-3.3955s-1.5234-3.3955-3.3955-3.3955
		c-1.5225,0-2.7991,1.0142-3.2285,2.3975h-2.0703v-6.8118c5.7147-4.3213,13.8371,0.6824,12.498,7.7933l-0.3682,1.9521l1.7871-0.8677
		c1.0859-0.5269,2.2354-0.7939,3.418-0.7939c3.1431,0,5.8572,1.8398,7.1392,4.4932h-7.6538v3.678
		c-1.3811,0.4306-2.3936,1.7063-2.3936,3.2273c0,1.8721,1.5234,3.3955,3.3955,3.3955s3.3955-1.5234,3.3955-3.3955
		c0-1.5225-1.0142-2.7991-2.3975-3.2285v-1.6768h6.3091c0.0846,0.4622,0.1353,0.9362,0.1353,1.4224
		c0,4.3647-3.5469,7.9155-7.9072,7.9155h-6.7217v-4.9106l-1.6024-1.4218c0.2109-0.4419,0.3387-0.9304,0.3387-1.4517
		c0-1.8721-1.5234-3.3955-3.3955-3.3955s-3.3955,1.5234-3.3955,3.3955s1.5234,3.3955,3.3955,3.3955
		c0.6221,0,1.1979-0.1802,1.6997-0.4735l0.9595,0.851v4.0112H49.915v-4.3983c1.3828-0.4297,2.3965-1.7061,2.3965-3.2282
		c0-1.8721-1.5234-3.3955-3.3955-3.3955s-3.3955,1.5234-3.3955,3.3955c0,1.5214,1.0127,2.7972,2.3945,3.2276v4.3989H29.708z
		 M35.3154,55.9414c0-0.7695,0.626-1.3955,1.3955-1.3955s1.3955,0.626,1.3955,1.3955s-0.626,1.3955-1.3955,1.3955
		S35.3154,56.7109,35.3154,55.9414z M40.1064,39.5415c0-0.7695,0.626-1.3955,1.3955-1.3955s1.3955,0.626,1.3955,1.3955
		s-0.626,1.3955-1.3955,1.3955S40.1064,40.311,40.1064,39.5415z M58.4658,47.0664c0-0.7695,0.626-1.3955,1.3955-1.3955
		s1.3955,0.626,1.3955,1.3955s-0.626,1.3955-1.3955,1.3955S58.4658,47.8359,58.4658,47.0664z M73.7803,58.7388
		c0,0.7695-0.626,1.3955-1.3955,1.3955s-1.3955-0.626-1.3955-1.3955c0-0.7695,0.626-1.3955,1.3955-1.3955
		S73.7803,57.9692,73.7803,58.7388z M61.9346,55.3872c0,0.7695-0.626,1.3955-1.3955,1.3955s-1.3955-0.626-1.3955-1.3955
		s0.626-1.3955,1.3955-1.3955S61.9346,54.6176,61.9346,55.3872z"/><rect width="2.001" height="3.552" x="69.522" y="4.861" transform="rotate(43.914 70.517 6.635)"/><rect width="6.789" height="2.001" x="69.427" y="7.745" transform="rotate(133.918 72.825 8.746)"/><rect width="2" height="3.551" x="4.887" y="71.402" transform="rotate(43.894 5.888 73.177)"/><rect width="2.001" height="6.787" x="7.186" y="71.893" transform="rotate(-136.098 8.186 75.29)"/></svg>